<svg width="442" height="316" viewBox="0 0 442 316" fill="none" xmlns="http://www.w3.org/2000/svg">
<path d="M81.721 250.367C79.3092 250.367 77.6124 249.971 76.6132 249.195C75.614 248.42 75.123 247.033 75.123 245.044V243.028C75.123 240.967 75.6743 239.566 76.7769 238.825C77.8708 238.075 79.559 237.705 81.8244 237.705C84.3051 237.705 86.045 238.101 87.0355 238.877C88.0261 239.652 88.5257 241.039 88.5257 243.028V245.044C88.5257 247.102 88.0002 248.489 86.9322 249.247C85.8641 250.005 84.1328 250.367 81.721 250.367Z" fill="#52575C"/>
<path d="M88.2046 307.69C88.228 308.542 88.08 309.391 87.7693 310.186C87.4586 310.98 86.9915 311.704 86.3958 312.315C85.1719 313.507 83.5307 314.175 81.822 314.175C80.1134 314.175 78.4722 313.507 77.2483 312.315C76.6537 311.704 76.188 310.98 75.8788 310.185C75.5695 309.39 75.423 308.542 75.4481 307.69V263.761C75.423 262.909 75.5695 262.06 75.8788 261.265C76.188 260.471 76.6537 259.746 77.2483 259.135C78.4722 257.943 80.1134 257.276 81.822 257.276C83.5307 257.276 85.1719 257.943 86.3958 259.135C86.9915 259.746 87.4586 260.47 87.7693 261.265C88.08 262.059 88.228 262.908 88.2046 263.761V307.69Z" fill="#52575C"/>
<path d="M151.913 258.025C151.315 257.428 150.602 256.959 149.817 256.648C149.032 256.337 148.192 256.19 147.348 256.216C146.497 256.189 145.651 256.34 144.863 256.661C144.075 256.981 143.364 257.463 142.774 258.076C142.178 258.687 141.711 259.411 141.4 260.206C141.09 261 140.942 261.849 140.965 262.702V262.857C140.304 262.247 139.611 261.672 138.889 261.134C136.862 259.635 134.62 258.45 132.239 257.62C129.542 256.675 126.7 256.209 123.841 256.242C119.232 256.185 114.708 257.488 110.835 259.988C106.867 262.579 103.657 266.175 101.532 270.411C99.153 275.177 97.9705 280.451 98.0869 285.777C97.9769 291.069 99.1596 296.309 101.532 301.04C103.673 305.3 106.926 308.902 110.947 311.463C114.916 313.986 119.534 315.3 124.238 315.244C126.799 315.267 129.343 314.814 131.74 313.909C133.891 313.117 135.921 312.026 137.769 310.67C138.925 309.82 139.995 308.859 140.965 307.802C140.954 308.636 141.108 309.465 141.419 310.239C141.729 311.014 142.19 311.719 142.774 312.315C143.995 313.509 145.635 314.178 147.343 314.178C149.051 314.178 150.691 313.509 151.913 312.315C152.508 311.705 152.975 310.981 153.286 310.186C153.597 309.392 153.745 308.543 153.722 307.69V262.702C153.754 261.84 153.611 260.981 153.3 260.176C152.989 259.372 152.517 258.64 151.913 258.025ZM139.526 294.821C138.313 297.406 136.419 299.613 134.048 301.204C131.615 302.788 128.76 303.602 125.857 303.538C122.99 303.593 120.173 302.779 117.777 301.204C115.406 299.613 113.513 297.406 112.299 294.821C110.999 291.967 110.327 288.867 110.327 285.73C110.327 282.593 110.999 279.493 112.299 276.638C113.513 274.053 115.406 271.847 117.777 270.256C120.172 268.677 122.989 267.861 125.857 267.913C128.761 267.852 131.615 268.669 134.048 270.256C136.419 271.847 138.313 274.053 139.526 276.638C140.821 279.494 141.49 282.594 141.49 285.73C141.49 288.866 140.821 291.965 139.526 294.821Z" fill="#52575C"/>
<path d="M197.968 256.215C203.211 256.215 207.199 257.312 209.932 259.506C212.695 261.76 214.67 264.834 215.574 268.283C216.642 272.253 217.16 276.351 217.116 280.462V307.69C217.139 308.543 216.991 309.391 216.68 310.186C216.37 310.98 215.902 311.705 215.307 312.315C214.083 313.507 212.442 314.175 210.733 314.175C209.024 314.175 207.383 313.507 206.159 312.315C205.564 311.705 205.096 310.98 204.786 310.186C204.475 309.391 204.327 308.543 204.35 307.69V280.462C204.379 278.318 204.074 276.182 203.446 274.132C202.885 272.313 201.745 270.728 200.199 269.618C198.637 268.47 196.403 267.895 193.497 267.895C190.995 267.819 188.517 268.414 186.322 269.618C184.441 270.677 182.893 272.24 181.852 274.132C180.809 276.077 180.278 278.256 180.31 280.462V307.69C180.333 308.543 180.185 309.391 179.875 310.186C179.564 310.98 179.097 311.705 178.501 312.315C177.277 313.507 175.636 314.175 173.928 314.175C172.219 314.175 170.578 313.507 169.354 312.315C168.759 311.704 168.293 310.98 167.984 310.185C167.675 309.391 167.529 308.542 167.554 307.69V263.761C167.529 262.909 167.675 262.06 167.984 261.265C168.293 260.471 168.759 259.747 169.354 259.135C170.578 257.943 172.219 257.276 173.928 257.276C175.636 257.276 177.277 257.943 178.501 259.135C179.097 259.746 179.564 260.47 179.875 261.265C180.185 262.059 180.333 262.908 180.31 263.761V268.335L178.717 268.016C179.487 266.622 180.414 265.322 181.482 264.14C182.755 262.694 184.181 261.392 185.737 260.255C187.429 259.017 189.291 258.03 191.266 257.327C193.419 256.57 195.686 256.194 197.968 256.215Z" fill="#52575C"/>
<path d="M273.165 257.275C274.015 257.25 274.861 257.402 275.648 257.722C276.436 258.043 277.148 258.524 277.739 259.135C278.335 259.746 278.802 260.47 279.112 261.265C279.423 262.059 279.571 262.908 279.548 263.761V290.781C279.548 298.292 277.455 304.247 273.268 308.646C269.082 313.044 263.053 315.244 255.18 315.244C247.307 315.244 241.298 313.044 237.152 308.646C233.006 304.247 230.933 298.292 230.933 290.781V263.761C230.91 262.908 231.058 262.059 231.368 261.265C231.679 260.47 232.146 259.746 232.742 259.135C233.966 257.943 235.607 257.276 237.316 257.276C239.024 257.276 240.665 257.943 241.889 259.135C242.482 259.748 242.947 260.472 243.256 261.267C243.565 262.061 243.713 262.909 243.69 263.761V290.781C243.69 295.105 244.649 298.313 246.567 300.403C248.484 302.493 251.356 303.538 255.18 303.538C259.085 303.538 261.993 302.493 263.906 300.403C265.818 298.313 266.774 295.105 266.774 290.781V263.761C266.75 262.908 266.898 262.059 267.209 261.265C267.52 260.47 267.987 259.746 268.583 259.135C269.175 258.523 269.888 258.041 270.677 257.721C271.466 257.4 272.314 257.248 273.165 257.275Z" fill="#52575C"/>
<path d="M299.753 314.176C298.903 314.202 298.057 314.05 297.27 313.729C296.482 313.409 295.77 312.927 295.179 312.315C294.584 311.705 294.117 310.98 293.806 310.186C293.495 309.391 293.347 308.543 293.371 307.69V263.761C293.347 262.908 293.495 262.059 293.806 261.265C294.117 260.47 294.584 259.746 295.179 259.136C296.403 257.943 298.044 257.276 299.753 257.276C301.462 257.276 303.103 257.943 304.327 259.136C304.92 259.748 305.385 260.472 305.694 261.267C306.003 262.061 306.15 262.909 306.127 263.761V273.761L305.386 266.638C306.141 264.974 307.165 263.446 308.418 262.116C309.648 260.814 311.065 259.702 312.622 258.817C314.185 257.927 315.867 257.266 317.618 256.853C319.357 256.429 321.141 256.215 322.932 256.216C324.882 256.155 326.79 256.797 328.307 258.024C328.973 258.517 329.516 259.156 329.894 259.892C330.272 260.629 330.474 261.443 330.486 262.271C330.486 264.614 329.883 266.299 328.677 267.327C327.598 268.305 326.197 268.854 324.741 268.869C323.479 268.884 322.229 268.632 321.072 268.128C319.883 267.609 318.596 267.353 317.299 267.379C315.957 267.381 314.631 267.674 313.414 268.24C312.02 268.908 310.786 269.869 309.796 271.057C308.632 272.461 307.733 274.067 307.144 275.794C306.422 277.935 306.079 280.185 306.127 282.444V307.647C306.15 308.499 306.003 309.347 305.694 310.141C305.385 310.935 304.92 311.66 304.327 312.272C303.739 312.891 303.029 313.379 302.241 313.707C301.453 314.035 300.606 314.195 299.753 314.176Z" fill="#52575C"/>
<path d="M336.232 305.347C335.481 304.221 335.144 302.869 335.276 301.522C335.345 299.963 336.267 298.611 338.041 297.483C339.111 296.766 340.393 296.435 341.676 296.544C343.112 296.73 344.433 297.427 345.397 298.508C347.285 300.446 349.475 302.063 351.883 303.297C354.548 304.522 357.461 305.112 360.393 305.019C361.571 304.936 362.742 304.778 363.899 304.546C365.157 304.301 366.319 303.704 367.25 302.823C367.763 302.28 368.157 301.635 368.404 300.93C368.652 300.226 368.749 299.476 368.688 298.732C368.717 298.032 368.59 297.334 368.314 296.69C368.038 296.046 367.621 295.472 367.095 295.011C365.846 293.984 364.422 293.19 362.891 292.668C361.168 292.03 359.236 291.427 357.094 290.859C354.898 290.221 352.641 289.515 350.341 288.731C348.112 287.991 345.985 286.972 344.01 285.699C342.083 284.444 340.48 282.75 339.333 280.755C338.05 278.379 337.426 275.702 337.524 273.003C337.43 269.733 338.485 266.533 340.505 263.959C342.554 261.43 345.205 259.455 348.214 258.214C351.358 256.872 354.744 256.186 358.162 256.198C360.481 256.215 362.791 256.481 365.053 256.991C367.457 257.536 369.775 258.405 371.944 259.575C374.098 260.702 375.984 262.279 377.474 264.2C378.276 265.324 378.752 266.647 378.852 268.024C378.996 269.512 378.324 270.861 376.836 272.073C375.788 272.913 374.453 273.311 373.115 273.184C371.812 273.128 370.57 272.619 369.601 271.746C368.318 270.126 366.656 268.847 364.76 268.024C362.564 267.068 360.187 266.598 357.792 266.646C356.634 266.656 355.48 266.78 354.347 267.017C353.144 267.248 352.025 267.798 351.108 268.61C350.609 269.118 350.226 269.729 349.987 270.4C349.747 271.071 349.657 271.786 349.721 272.495C349.689 273.219 349.815 273.942 350.09 274.613C350.365 275.284 350.783 275.887 351.315 276.38C352.576 277.443 354.042 278.237 355.621 278.714C357.43 279.317 359.362 279.891 361.418 280.437C363.474 280.982 365.636 281.657 367.904 282.461C370.043 283.215 372.07 284.252 373.934 285.544C375.806 286.828 377.354 288.53 378.456 290.514C379.679 292.895 380.272 295.549 380.178 298.223C380.267 301.591 379.135 304.876 376.991 307.474C374.854 310.037 372.113 312.029 369.015 313.271C365.915 314.566 362.59 315.236 359.23 315.244C354.955 315.225 350.712 314.488 346.681 313.064C342.491 311.62 338.845 308.926 336.232 305.347Z" fill="#52575C"/>
<path d="M417.061 315.244C411.591 315.383 406.182 314.078 401.376 311.462C397.07 309.076 393.528 305.519 391.16 301.204C388.75 296.704 387.526 291.665 387.603 286.561C387.603 280.175 388.898 274.72 391.488 270.195C393.883 265.9 397.391 262.329 401.643 259.859C405.671 257.488 410.26 256.239 414.934 256.241C418.485 256.212 421.999 256.965 425.227 258.446C428.439 259.929 431.344 262.004 433.789 264.562C436.283 267.174 438.282 270.218 439.689 273.546C441.148 276.977 441.89 280.67 441.868 284.399C441.856 285.195 441.669 285.978 441.32 286.694C440.972 287.41 440.471 288.04 439.853 288.542C438.605 289.599 437.017 290.168 435.382 290.144H394.726L391.539 279.506H430.567L428.233 281.634V278.757C428.099 276.73 427.334 274.796 426.045 273.227C424.724 271.589 423.056 270.266 421.161 269.351C419.224 268.397 417.093 267.905 414.934 267.912C412.918 267.899 410.911 268.19 408.982 268.774C407.173 269.32 405.528 270.305 404.193 271.642C402.73 273.184 401.64 275.04 401.006 277.068C400.148 279.857 399.753 282.766 399.834 285.682C399.723 289.085 400.552 292.452 402.229 295.415C403.704 297.944 405.835 300.027 408.396 301.445C410.852 302.807 413.615 303.519 416.424 303.512C418.536 303.57 420.646 303.356 422.703 302.875C424.029 302.548 425.3 302.028 426.476 301.333C427.432 300.73 428.302 300.222 429.06 299.791C430.175 299.196 431.414 298.868 432.678 298.835C433.384 298.825 434.086 298.954 434.742 299.217C435.399 299.48 435.996 299.87 436.501 300.365C437.005 300.86 437.407 301.45 437.682 302.101C437.957 302.752 438.101 303.451 438.104 304.158C438.104 306.07 437.111 307.793 435.124 309.326C432.804 311.141 430.179 312.527 427.372 313.417C424.064 314.608 420.577 315.226 417.061 315.244Z" fill="#52575C"/>
<path d="M33.6769 314.013C33.1492 309.733 32.1025 305.533 30.5598 301.504H13.6817V278.553C9.5299 275.26 4.92164 272.584 0.000401734 270.608V307.392C-0.0176865 308.27 0.142425 309.143 0.47112 309.957C0.799815 310.772 1.29031 311.512 1.91313 312.133C2.53595 312.754 3.27825 313.243 4.09542 313.57C4.9126 313.898 5.78778 314.058 6.6684 314.04H32.8002C33.1101 314.04 33.3847 314.022 33.6769 314.013Z" fill="#00A99D"/>
<path d="M63.4845 261.195C62.1518 256.768 60.002 252.628 57.1458 248.988C54.3777 245.495 50.8434 242.68 46.8144 240.761C42.4354 238.725 37.6492 237.708 32.8179 237.787L20.8044 237.672C18.9099 237.672 11.3849 237.919 5.99345 242.809C-1.08891 249.226 0.194765 259.103 0 262.06V270.622C4.9173 272.603 9.52362 275.279 13.6778 278.566V262.493C13.6799 259.303 14.9433 256.243 17.194 253.975C19.4446 251.708 22.501 250.417 25.7001 250.383L31.6935 250.321C34.6409 250.207 37.5679 250.854 40.1908 252.199C42.8136 253.544 45.0433 255.543 46.6639 258C48.3162 260.496 49.5149 263.263 50.205 266.173C50.9789 269.37 51.3624 272.648 51.3471 275.936C51.3892 280.249 50.7069 284.539 49.3286 288.628C48.1314 292.296 45.9112 295.547 42.9279 298.002C40.0124 300.356 36.2617 301.533 31.6758 301.533H30.4807C32.0099 305.565 33.0559 309.763 33.5969 314.04C40.3074 313.917 45.991 312.275 50.6388 308.974C55.5407 305.486 59.3797 300.714 61.7316 295.187C64.3438 289.113 65.6497 282.561 65.5649 275.953C65.611 270.958 64.9098 265.984 63.4845 261.195Z" fill="#52575C"/>
<path d="M321.064 81.2284C319.89 78.983 318.176 77.0432 316.065 75.572C313.421 73.7684 310.455 72.453 307.317 71.6924C303.238 70.6657 299.034 70.1818 294.82 70.2541H290.696C281.298 70.2541 269.45 75.0886 269.45 88.3834V112.024C269.763 110.972 270.1 109.921 270.475 108.882C271.429 106.31 272.604 103.819 273.987 101.436C275.399 99.0221 277.075 96.7612 278.986 94.6924C280.942 92.5638 283.125 90.6396 285.497 88.9514C287.944 87.2895 290.678 86.0617 293.57 85.3256C295.004 84.9903 296.462 84.756 297.932 84.6246C298.656 84.6246 299.381 84.5158 300.106 84.4916C300.831 84.4675 301.568 84.4916 302.293 84.5762C303.726 84.6439 305.151 84.8217 306.555 85.108C307.95 85.4117 309.32 85.8157 310.654 86.3167C310.734 86.3489 310.797 86.4095 310.832 86.486C310.867 86.5624 310.87 86.6489 310.841 86.7276C310.824 86.7715 310.797 86.8114 310.762 86.8447C310.728 86.878 310.687 86.904 310.641 86.921C309.254 87.344 307.904 87.5374 306.592 87.8637C305.28 88.19 303.98 88.4317 302.731 88.8064C300.273 89.4347 297.853 90.1932 295.482 91.0786C293.183 91.9851 290.983 92.9641 288.759 94.0156C286.497 95.0874 284.395 96.4493 282.51 98.0644C280.603 99.7239 278.886 101.576 277.386 103.588C275.854 105.661 274.5 107.852 273.337 110.139C272.525 111.637 271.812 113.196 271.15 114.78C274.774 111.843 283.935 105.449 294.895 105.739C300.31 106.011 305.724 105.188 310.791 103.322C314.405 102.042 317.546 99.7539 319.814 96.747C321.434 94.503 322.404 91.8808 322.624 89.1523C322.844 86.4237 322.305 83.6879 321.064 81.2284Z" fill="#00A99D"/>
<path d="M241.777 157.959C224.735 157.847 208.154 163.564 194.718 174.186C181.283 184.807 171.781 199.71 167.75 216.482C176.149 221.567 186.179 224.151 197.876 224.234L246.526 224.58C248.162 224.619 249.789 224.324 251.311 223.713C252.832 223.102 254.217 222.188 255.382 221.024C256.548 219.86 257.47 218.471 258.095 216.939C258.72 215.406 259.034 213.763 259.019 212.105L259.387 160.371C253.628 158.885 247.719 158.075 241.777 157.959ZM243.164 200.095L236.019 200.044L235.968 207.28L221.678 207.179L221.73 199.942L214.572 199.891L214.675 185.406L221.833 185.457L221.885 178.171L236.174 178.272L236.122 185.559L243.267 185.61L243.164 200.095Z" fill="#00A99D"/>
<path d="M186.902 124.555C189.902 124.555 192.333 122.124 192.333 119.124C192.333 116.125 189.902 113.693 186.902 113.693C183.903 113.693 181.472 116.125 181.472 119.124C181.472 122.124 183.903 124.555 186.902 124.555Z" fill="#00A99D"/>
<path d="M229.263 124.555C232.262 124.555 234.694 122.124 234.694 119.124C234.694 116.125 232.262 113.693 229.263 113.693C226.263 113.693 223.832 116.125 223.832 119.124C223.832 122.124 226.263 124.555 229.263 124.555Z" fill="#00A99D"/>
<path d="M248.19 90.7072C238.128 81.5656 224.074 81.093 220.541 81.093L198.154 81.3045C189.143 81.1397 180.212 83.0237 172.035 86.8143C164.496 90.4056 157.883 95.6824 152.707 102.237C147.36 109.037 143.343 116.784 140.867 125.072C138.169 134.038 136.827 143.357 136.887 152.721C136.712 165.111 139.144 177.4 144.026 188.789C148.421 199.128 155.593 208.047 164.747 214.56C165.742 215.256 166.762 215.928 167.819 216.55C171.797 199.98 181.237 185.232 194.619 174.682C208.001 164.131 224.545 158.393 241.586 158.392C247.554 158.403 253.5 159.1 259.309 160.469V126.801C259.098 123.032 261.411 102.734 248.19 90.7072ZM187.246 132.995C184.54 132.995 181.895 132.192 179.645 130.689C177.395 129.186 175.642 127.049 174.606 124.549C173.571 122.049 173.3 119.298 173.828 116.644C174.356 113.99 175.659 111.553 177.572 109.639C179.485 107.726 181.923 106.423 184.577 105.895C187.231 105.367 189.982 105.638 192.482 106.674C194.982 107.709 197.118 109.463 198.622 111.713C200.125 113.962 200.927 116.608 200.927 119.313C200.931 121.114 200.578 122.898 199.891 124.562C199.203 126.227 198.194 127.739 196.92 129.012C195.647 130.286 194.135 131.295 192.47 131.983C190.806 132.671 189.022 133.023 187.221 133.02L187.246 132.995ZM229.534 132.995C226.828 132.995 224.183 132.192 221.933 130.689C219.683 129.186 217.929 127.049 216.894 124.549C215.858 122.049 215.587 119.298 216.115 116.644C216.643 113.99 217.946 111.553 219.86 109.639C221.773 107.726 224.211 106.423 226.865 105.895C229.519 105.367 232.269 105.638 234.769 106.674C237.269 107.709 239.406 109.463 240.909 111.713C242.413 113.962 243.215 116.608 243.215 119.313C243.218 121.114 242.866 122.898 242.178 124.562C241.491 126.227 240.481 127.739 239.208 129.012C237.934 130.286 236.422 131.295 234.758 131.983C233.093 132.671 231.31 133.023 229.509 133.02L229.534 132.995Z" fill="url(#paint0_linear)"/>
<path d="M252.441 67.1372C250.548 63.1372 248.329 59.3015 245.807 55.6692C243.336 52.0698 240.496 48.7408 237.334 45.7371C234.198 42.7942 230.708 40.2569 226.946 38.1841C223.212 36.1614 219.344 34.3991 215.369 32.9096C214.368 32.532 213.341 32.2299 212.328 31.8774L210.801 31.3739L209.236 30.9585L206.095 30.115C205.018 29.9136 203.955 29.6996 202.878 29.473L201.264 29.1331C200.725 29.0199 200.175 28.9821 199.637 28.8814L196.345 28.4408C194.13 28.0883 191.902 27.9499 189.624 27.547C189.536 27.5375 189.456 27.494 189.4 27.4258C189.344 27.3577 189.316 27.2702 189.324 27.182C189.336 27.1218 189.364 27.0663 189.406 27.0217C189.449 26.9772 189.502 26.9455 189.561 26.9302C191.798 26.3623 194.062 25.9085 196.345 25.5707C203.337 24.7123 210.428 25.1863 217.246 26.968C221.834 28.2795 226.195 30.2919 230.175 32.9348C234.078 35.6312 237.668 38.7602 240.876 42.2627C244.063 45.6854 246.882 49.4365 249.287 53.4537C251.628 57.4489 253.641 61.6295 255.307 65.9539C256.92 70.2512 258.237 74.6548 259.249 79.1338C259.4 79.8262 259.537 80.5185 259.675 81.2109V35.0371C259.688 9.88567 238.135 0.834695 221.051 0.746577H213.542C205.874 0.607058 198.224 1.51757 190.8 3.45306C185.16 4.92958 179.834 7.42484 175.081 10.8172C171.23 13.5964 168.101 17.2663 165.956 21.5172C163.685 26.1674 162.696 31.3454 163.092 36.5112C163.488 41.6769 165.256 46.641 168.209 50.8857C171.664 55.9714 177.133 60.0584 184.618 63.1467C192.127 66.2308 201.739 67.8673 213.529 67.7792C243.842 67.4645 256.321 81.7144 259.074 85.4531C257.482 79.1388 255.259 73.0024 252.441 67.1372Z" fill="url(#paint1_linear)"/>
<defs>
<linearGradient id="paint0_linear" x1="136.878" y1="81.093" x2="288.501" y2="158.504" gradientUnits="userSpaceOnUse">
<stop stop-color="#05B240"/>
<stop offset="1" stop-color="#09B8EF"/>
</linearGradient>
<linearGradient id="paint1_linear" x1="163.007" y1="0.732666" x2="269.622" y2="69.4296" gradientUnits="userSpaceOnUse">
<stop stop-color="#05B240"/>
<stop offset="1" stop-color="#09B8EF"/>
</linearGradient>
</defs>
</svg>
